<svg width="45" height="35" viewBox="0 0 45 35" fill="none" xmlns="http://www.w3.org/2000/svg">
<path d="M40.7706 14.2535C40.7395 9.35581 36.7899 5.4 31.9385 5.4C30.7567 5.4 29.6372 5.61977 28.642 6.0593C26.9005 2.48023 23.2619 0 19.0325 0C13.9323 0 9.64064 3.64186 8.58328 8.44535C3.79406 8.7593 0 12.7779 0 17.707C0 22.8244 4.10505 27 9.20525 27H38.4692C42.0767 27 45 24.0488 45 20.407C44.9689 17.6128 43.2274 15.2267 40.7706 14.2535Z" fill="#4D95FE"/>
<path d="M27.2237 29.7947V18.7881C27.2237 17.7947 26.4342 17 25.4474 17H20.5921C19.6053 17 18.8158 17.7947 18.8158 18.7881V29.7947H17L23 35L29 29.7947H27.2237Z" fill="#2574E7"/>
</svg>
